#!OML:ASF E:\Style4\Style4.ASF
:FULLY-SPECIFIED
:DEGREES
1938
root 1.48493 16.9869 -1.97285 10.4638 -29.806 2.61856
lowerback 18.5518 0.471457 -1.03991
upperback 8.51871 0.321628 1.55109
thorax -1.26239 0.0320735 2.16698
lowerneck -0.491691 -2.64063 -5.3329
upperneck -14.6945 -3.76682 1.41979
head -4.66614 -1.70571 1.57271
rclavicle 1.11319e-014 3.18055e-015
rhumerus 54.9117 6.01225 -14.6643
rradius 65.628
rwrist -88.8558
rhand -6.46739 14.3666
rfingers 7.12502
rthumb 19.383 -14.6874
lclavicle 1.11319e-014 3.18055e-015
lhumerus 62.855 -8.2873 21.373
lradius 68.1156
lwrist 77.3819
lhand 13.316 26.8226
lfingers 7.12502
lthumb 38.2643 52.5494
rfemur -46.0954 8.56539 9.78693
rtibia 46.5944
rfoot -15.8333 4.05492
rtoes -16.5908
lfemur -40.9573 19.5982 -29.9432
ltibia 52.1847
lfoot -27.4858 16.559
ltoes -6.79827
1939
root 1.47564 16.9814 -1.97984 10.431 -29.7867 2.67929
lowerback 18.5789 0.508511 -1.08469
upperback 8.54583 0.361299 1.5471
thorax -1.2492 0.0501096 2.18064
lowerneck -0.58837 -2.66987 -5.30506
upperneck -14.6422 -3.80173 1.39667
head -4.6269 -1.72455 1.55735
rclavicle 3.10104e-014 -5.48646e-014
rhumerus 54.8604 6.02657 -14.614
rradius 65.6696
rwrist -88.9908
rhand -6.57693 14.4734
rfingers 7.12502
rthumb 19.2777 -14.5911
lclavicle 3.10104e-014 -5.48646e-014
lhumerus 62.8381 -8.28983 21.308
lradius 68.225
lwrist 77.4725
lhand 13.1275 26.8013
lfingers 7.12502
lthumb 38.0863 52.577
rfemur -46.1724 8.57851 9.75395
rtibia 46.7283
rfoot -15.8696 4.07924
rtoes -16.4052
lfemur -41.002 19.6672 -29.9723
ltibia 52.2496
lfoot -27.4187 16.3461
ltoes -6.47206
1940
root 1.46549 16.9765 -1.98484 10.353 -29.7495 2.83145
lowerback 18.6234 0.538052 -1.1799
upperback 8.5405 0.38346 1.51946
thorax -1.27897 0.0597517 2.20128
lowerneck -0.601275 -2.71094 -5.29662
upperneck -14.6236 -3.86222 1.34956
head -4.61609 -1.75314 1.54093
rclavicle -2.14687e-014 1.51076e-014
rhumerus 54.8061 6.10884 -14.6011
rradius 65.6921
rwrist -89.0151
rhand -6.67035 14.5873
rfingers 7.12502
rthumb 19.1878 -14.4861
lclavicle -2.14687e-014 1.51076e-014
lhumerus 62.8107 -8.35889 21.2772
lradius 68.2755
lwrist 77.4693
lhand 13.1865 26.7988
lfingers 7.12502
lthumb 38.1419 52.5592
rfemur -46.2485 8.56572 9.62826
rtibia 46.894
rfoot -15.9255 4.09931
rtoes -16.1443
lfemur -41.017 19.7166 -30.0899
ltibia 52.3049
lfoot -27.4001 16.1405
ltoes -5.88145
1941
root 1.45464 16.9699 -1.9908 10.3538 -29.6612 2.93331
lowerback 18.6251 0.542027 -1.29056
upperback 8.51182 0.372733 1.53693
thorax -1.31042 0.052439 2.2847
lowerneck -0.520103 -2.7143 -5.31665
upperneck -14.69 -3.87804 1.3172
head -4.65666 -1.75708 1.53749
rclavicle 2.8625e-014 -7.15625e-015
rhumerus 54.8185 6.20166 -14.5797
rradius 65.7179
rwrist -89.0659
rhand -6.65368 14.7639
rfingers 7.12502
rthumb 19.2039 -14.308
lclavicle 2.8625e-014 -7.15625e-015
lhumerus 62.7079 -8.39943 21.2431
lradius 68.316
lwrist 77.3768
lhand 13.42 26.8469
lfingers 7.12502
lthumb 38.3624 52.5466
rfemur -46.3893 8.50968 9.56395
rtibia 47.0772
rfoot -15.9866 3.99447
rtoes -16.4566
lfemur -41.1164 19.7336 -30.1759
ltibia 52.3602
lfoot -27.3825 16.0215
ltoes -5.6202
1942
root 1.44511 16.9613 -2.00028 10.392 -29.5283 2.96834
lowerback 18.6547 0.518762 -1.34421
upperback 8.49751 0.335539 1.5641
thorax -1.33919 0.0329267 2.35123
lowerneck -0.480755 -2.68175 -5.28259
upperneck -14.7603 -3.84266 1.26749
head -4.69346 -1.73771 1.51587
rclavicle 2.06736e-014 3.65764e-014
rhumerus 54.8584 6.25586 -14.5182
rradius 65.767
rwrist -89.1256
rhand -6.73757 15.0522
rfingers 7.12502
rthumb 19.1232 -14.0277
lclavicle 2.06736e-014 3.65764e-014
lhumerus 62.5774 -8.36106 21.2256
lradius 68.364
lwrist 77.2151
lhand 13.638 26.9518
lfingers 7.12502
lthumb 38.5681 52.5942
rfemur -46.5436 8.47509 9.5469
rtibia 47.2642
rfoot -16.0074 3.97412
rtoes -15.8362
lfemur -41.2931 19.7366 -30.2104
ltibia 52.4493
lfoot -27.2718 16.1429
ltoes -6.55317
